<svg width="32" height="32" viewBox="0 0 32 32" fill="none" xmlns="http://www.w3.org/2000/svg">
<g clip-path="url(#clip0)">
<path d="M24.145 9.28249C24.0725 9.07602 23.9478 8.8918 23.7831 8.7477C23.6184 8.60359 23.4193 8.50448 23.205 8.45999C22.9262 8.4257 22.6433 8.45268 22.376 8.53904C22.1087 8.6254 21.8635 8.76906 21.6575 8.95999C21.49 9.12499 21.39 9.22749 21.0625 13.68C20.91 15.755 20.765 18.1125 20.765 18.5325C20.765 18.8575 20.645 19.9475 20.515 21.06C20.4875 20.995 20.46 20.9275 20.4325 20.85C20.04 19.7725 19.1325 18.85 17.8725 18.2625C17.0325 17.8675 16.2125 17.8975 15.68 18.3475C15.4866 18.5066 15.3432 18.7181 15.2669 18.9567C15.1907 19.1952 15.1848 19.4507 15.25 19.6925C15.3775 20.155 15.705 20.6125 16.085 21.145C16.4342 21.5954 16.7406 22.0775 17 22.585C17.2266 23.1122 17.4113 23.6563 17.5525 24.2125C17.7157 24.8653 17.9417 25.5008 18.2275 26.11C18.3625 26.3725 18.5075 26.6525 18.6575 26.9375C19.1227 27.7757 19.54 28.6396 19.9075 29.525C20.3425 30.6975 22.135 31.79 22.3375 31.91C22.4503 31.961 22.578 31.9683 22.6959 31.9306C22.8138 31.8928 22.9135 31.8127 22.9757 31.7057C23.0379 31.5987 23.0582 31.4724 23.0327 31.3513C23.0072 31.2301 22.9376 31.1228 22.8375 31.05C22.1875 30.6625 21.0675 29.8 20.8375 29.175C20.4605 28.2498 20.0298 27.3474 19.5475 26.4725C19.4 26.19 19.255 25.915 19.1225 25.655C18.8606 25.1046 18.6521 24.5303 18.5 23.94C18.3447 23.3332 18.1416 22.7397 17.8925 22.165C17.6103 21.6006 17.2755 21.064 16.8925 20.5625C16.6116 20.2185 16.381 19.8364 16.2075 19.4275C16.1902 19.3697 16.1907 19.3079 16.209 19.2504C16.2272 19.1929 16.2625 19.1422 16.31 19.105C16.4825 18.9575 16.87 18.8975 17.4325 19.16C18.805 19.805 19.3025 20.705 19.4775 21.185C19.6447 21.6971 19.9309 22.1623 20.3125 22.5425C20.2675 22.8925 20.2275 23.2025 20.1975 23.4325C20.1881 23.4988 20.192 23.5663 20.2092 23.6311C20.2263 23.6958 20.2563 23.7565 20.2974 23.8094C20.3384 23.8623 20.3897 23.9065 20.4481 23.9392C20.5065 23.972 20.5709 23.9926 20.6375 24H20.705C20.8271 24.001 20.9453 23.9574 21.0374 23.8772C21.1295 23.7971 21.1892 23.686 21.205 23.565C21.2625 23.13 21.7725 19.2925 21.7725 18.5275C21.7725 17.5975 22.255 10.675 22.45 9.60499C22.6161 9.48941 22.8154 9.43145 23.0175 9.43999C23.055 9.43999 23.1425 9.46749 23.225 9.66249C23.3775 10.08 23.4 12.6475 23.345 15.79V15.845C23.345 15.845 23.345 15.845 23.345 15.8625C23.315 17.55 23.2625 19.4 23.1975 21.1675C23.1951 21.2332 23.2055 21.2987 23.2284 21.3603C23.2513 21.4219 23.286 21.4784 23.3307 21.5265C23.3754 21.5747 23.4291 21.6136 23.4889 21.641C23.5486 21.6684 23.6131 21.6838 23.6788 21.6862C23.7444 21.6887 23.8099 21.6782 23.8715 21.6554C23.9331 21.6325 23.9896 21.5977 24.0378 21.5531C24.086 21.5084 24.1249 21.4546 24.1523 21.3949C24.1797 21.3352 24.1951 21.2707 24.1975 21.205C24.2375 20.1075 24.3125 17.9225 24.35 15.705C24.3528 15.6361 24.3717 15.5688 24.4051 15.5084C24.4385 15.4481 24.4856 15.3964 24.5425 15.3575C24.7087 15.2762 24.8898 15.2296 25.0746 15.2206C25.2594 15.2116 25.4442 15.2403 25.6175 15.305C26 15.47 26 15.985 26 16C26 16.0375 26.0775 19.8075 26.0625 20.6575C26.0625 20.7901 26.1152 20.9173 26.209 21.011C26.3027 21.1048 26.4299 21.1575 26.5625 21.1575C26.6951 21.1575 26.8223 21.1048 26.9161 21.011C27.0098 20.9173 27.0625 20.7901 27.0625 20.6575C27.075 19.9625 27.03 17.485 27.01 16.4325C27.2134 16.4228 27.4166 16.4554 27.6067 16.5281C27.7969 16.6008 27.97 16.7121 28.115 16.855C28.29 17.0575 28.48 17.855 28.55 18.455V18.4725C28.55 18.4725 28.55 18.485 28.55 18.4925C28.6916 19.3571 28.6975 20.2385 28.5675 21.105C28.556 21.1697 28.5573 21.236 28.5715 21.3001C28.5856 21.3643 28.6122 21.4251 28.6498 21.4789C28.6874 21.5328 28.7353 21.5787 28.7907 21.6141C28.846 21.6494 28.9078 21.6735 28.9725 21.685C29.0016 21.6875 29.0309 21.6875 29.06 21.685C29.1788 21.6868 29.2943 21.6463 29.3859 21.5707C29.4775 21.4952 29.5392 21.3894 29.56 21.2725C29.6841 20.4911 29.7042 19.6967 29.62 18.91C29.7761 18.9414 29.9262 18.9971 30.065 19.075C30.4625 19.3 30.73 19.715 30.7275 21.0125C30.7275 21.485 30.7775 22.1875 30.835 23.0125C30.94 24.5125 31.085 26.3825 30.93 27.5125C30.715 29.1925 29.825 31.2625 29.8175 31.295C29.7879 31.3558 29.771 31.422 29.7677 31.4895C29.7644 31.557 29.7748 31.6246 29.7983 31.6879C29.8219 31.7513 29.858 31.8093 29.9046 31.8583C29.9512 31.9073 30.0072 31.9464 30.0693 31.9731C30.1315 31.9999 30.1983 32.0137 30.266 32.0139C30.3336 32.014 30.4005 32.0005 30.4628 31.974C30.525 31.9475 30.5812 31.9087 30.628 31.8599C30.6748 31.8111 30.7112 31.7533 30.735 31.69C30.775 31.6 31.6875 29.4625 31.92 27.64C32.075 26.425 31.94 24.5 31.83 22.955C31.775 22.16 31.725 21.475 31.725 21.0375C31.725 19.975 31.5875 18.8125 30.555 18.2275C30.2244 18.041 29.8562 17.9308 29.4775 17.905C29.39 17.3875 29.205 16.605 28.8675 16.2175C28.6166 15.9559 28.3118 15.7519 27.9742 15.6198C27.6366 15.4877 27.2744 15.4306 26.9125 15.4525C26.8488 15.2188 26.7338 15.0022 26.576 14.8184C26.4182 14.6346 26.2214 14.4883 26 14.39C25.4756 14.198 24.9022 14.1857 24.37 14.355C24.385 11.9375 24.345 9.74999 24.145 9.28249Z" fill="#19529D"/>
<path d="M18.4005 11.4273C18.4005 10.207 18.0387 9.01411 17.3607 7.99946C16.6827 6.98481 15.7191 6.19398 14.5917 5.72699C13.4643 5.26 12.2237 5.13781 11.0268 5.37588C9.82998 5.61395 8.73059 6.20159 7.8677 7.06448C7.00481 7.92737 6.41718 9.02676 6.1791 10.2236C5.94103 11.4205 6.06322 12.6611 6.53021 13.7885C6.99721 14.9159 7.78803 15.8795 8.80268 16.5575C9.81733 17.2355 11.0102 17.5973 12.2305 17.5973C13.8663 17.5953 15.4345 16.9447 16.5912 15.788C17.7479 14.6313 18.3986 13.0631 18.4005 11.4273ZM12.2305 16.5973C11.208 16.5973 10.2085 16.2941 9.35825 15.726C8.50805 15.1579 7.8454 14.3505 7.45409 13.4058C7.06279 12.4611 6.9604 11.4216 7.15989 10.4187C7.35938 9.41583 7.85177 8.49462 8.57481 7.77158C9.29784 7.04855 10.2191 6.55615 11.2219 6.35667C12.2248 6.15718 13.2643 6.25956 14.209 6.65087C15.1537 7.04217 15.9612 7.70483 16.5292 8.55503C17.0973 9.40523 17.4005 10.4048 17.4005 11.4273C17.3992 12.7981 16.8541 14.1123 15.8848 15.0816C14.9156 16.0509 13.6013 16.596 12.2305 16.5973Z" fill="#19529D"/>
<path d="M0.482673 13.6727L3.11517 14.5002C3.52214 15.7052 4.16269 16.8181 5.00017 17.7752L4.41017 20.4727C4.38959 20.5641 4.39507 20.6594 4.42601 20.7478C4.45695 20.8362 4.5121 20.9141 4.58517 20.9727C5.55111 21.7472 6.62929 22.3702 7.78267 22.8202C7.86979 22.8542 7.9647 22.8631 8.05662 22.8459C8.14854 22.8286 8.23379 22.786 8.30267 22.7227L10.3402 20.8577C10.9616 20.9822 11.5939 21.045 12.2277 21.0452C12.8733 21.0602 13.5183 20.9947 14.1477 20.8502C14.277 20.8207 14.3892 20.7411 14.4598 20.6288C14.5304 20.5165 14.5534 20.3808 14.5239 20.2515C14.4944 20.1222 14.4148 20.0099 14.3025 19.9393C14.1902 19.8688 14.0545 19.8457 13.9252 19.8752C13.3689 20.0038 12.7984 20.061 12.2277 20.0452C11.5799 20.0449 10.9342 19.972 10.3027 19.8277C10.2241 19.8098 10.1424 19.8111 10.0645 19.8316C9.9866 19.8521 9.91478 19.891 9.85517 19.9452L7.85517 21.7727C6.99887 21.4111 6.19098 20.9442 5.45017 20.3827L6.04017 17.7502C6.05743 17.6713 6.0553 17.5893 6.03397 17.5114C6.01264 17.4335 5.97273 17.3619 5.91767 17.3027C5.03552 16.3468 4.38012 15.2043 4.00017 13.9602C3.97639 13.8828 3.93416 13.8123 3.87711 13.7548C3.82006 13.6974 3.74991 13.6546 3.67267 13.6302L1.08517 12.8152C0.971388 11.8929 0.971388 10.9601 1.08517 10.0377L3.66267 9.22272C3.74175 9.19976 3.81394 9.15763 3.87282 9.10006C3.93169 9.04249 3.97544 8.97127 4.00017 8.89272C4.38442 7.6513 5.0432 6.51231 5.92767 5.56022C5.98273 5.50108 6.02264 5.42948 6.04397 5.35154C6.0653 5.2736 6.06743 5.19166 6.05017 5.11272L5.45517 2.47272C6.19604 1.91136 7.00392 1.44444 7.86017 1.08272L9.86017 2.90772C9.91978 2.96191 9.9916 3.00089 10.0695 3.02135C10.1474 3.0418 10.2291 3.04313 10.3077 3.02522C11.5738 2.73535 12.8891 2.73535 14.1552 3.02522C14.2337 3.04313 14.3154 3.0418 14.3933 3.02135C14.4712 3.00089 14.5431 2.96191 14.6027 2.90772L16.6027 1.08272C17.4563 1.44497 18.2617 1.91188 19.0002 2.47272L18.4202 5.11522C18.4029 5.19416 18.405 5.2761 18.4264 5.35404C18.4477 5.43198 18.4876 5.50358 18.5427 5.56272C19.3028 6.37695 19.8972 7.33137 20.2927 8.37272C20.316 8.43412 20.3512 8.49032 20.3962 8.53812C20.4412 8.58591 20.4952 8.62438 20.5551 8.65131C20.615 8.67824 20.6796 8.6931 20.7453 8.69506C20.8109 8.69702 20.8763 8.68603 20.9377 8.66272C20.9991 8.63941 21.0553 8.60424 21.1031 8.55921C21.1509 8.51418 21.1893 8.46018 21.2163 8.40028C21.2432 8.34039 21.2581 8.27578 21.26 8.21014C21.262 8.1445 21.251 8.07911 21.2277 8.01772C20.8188 6.93971 20.2183 5.94453 19.4552 5.08022L20.0477 2.38022C20.0683 2.28885 20.0628 2.19354 20.0318 2.10514C20.0009 2.01674 19.9457 1.93881 19.8727 1.88022C18.9065 1.10669 17.8284 0.484577 16.6752 0.0352214C16.5881 0.00121529 16.4931 -0.00767524 16.4012 0.00955981C16.3093 0.0267949 16.2241 0.0694645 16.1552 0.132721L14.1177 2.00022C12.8717 1.75038 11.5886 1.75038 10.3427 2.00022L8.30267 0.130221C8.23353 0.0673838 8.14816 0.0251764 8.05625 0.00838521C7.96434 -0.008406 7.86957 0.000890795 7.78267 0.0352214C6.6302 0.485574 5.55289 1.10853 4.58767 1.88272C4.5146 1.94131 4.45946 2.01924 4.42851 2.10764C4.39757 2.19604 4.39209 2.29135 4.41267 2.38272L5.00017 5.07772C4.16057 6.03276 3.51748 7.14394 3.10767 8.34772L0.482673 9.18022C0.39322 9.20823 0.313441 9.26082 0.252439 9.33199C0.191437 9.40316 0.151669 9.49004 0.137673 9.58272C-0.047193 10.8058 -0.047193 12.0497 0.137673 13.2727C0.152103 13.365 0.192066 13.4513 0.253039 13.522C0.314012 13.5927 0.393558 13.6449 0.482673 13.6727Z" fill="#19529D"/>
<path d="M19.2872 17.9576C19.6957 17.5575 20.0055 17.0679 20.1922 16.5276C20.2268 16.4023 20.2111 16.2685 20.1487 16.1545C20.0863 16.0406 19.9819 15.9554 19.8578 15.917C19.7336 15.8787 19.5994 15.8902 19.4836 15.9491C19.3677 16.008 19.2794 16.1096 19.2372 16.2326C19.0911 16.6324 18.855 16.9934 18.5472 17.2876C18.4839 17.3596 18.4427 17.4483 18.4284 17.5431C18.4141 17.6379 18.4274 17.7348 18.4667 17.8223C18.5059 17.9098 18.5695 17.9841 18.6498 18.0364C18.7302 18.0888 18.8239 18.117 18.9197 18.1176C18.9887 18.1177 19.057 18.1035 19.1202 18.076C19.1835 18.0485 19.2403 18.0081 19.2872 17.9576Z" fill="#19529D"/>
</g>
<defs>
<clipPath id="clip0">
<rect width="32" height="32" fill="white"/>
</clipPath>
</defs>
</svg>
