<svg width="1920" height="156" viewBox="0 0 1920 156" fill="none" xmlns="http://www.w3.org/2000/svg">
<path d="M1920 124.856L1856 109.284C1792 93.7122 1664 62.5683 1536 36.5826C1408 10.9862 1280 -10.4253 1152 5.43867C1024 20.7186 896 73.274 768 88.554C640 104.418 512 83.0065 384 88.554C256 93.7122 128 124.856 63.9999 140.428L-5.72205e-05 156H63.9999C128 156 256 156 384 156C512 156 640 156 768 156C896 156 1024 156 1152 156C1280 156 1408 156 1536 156C1664 156 1792 156 1856 156H1920V124.856Z" fill="#3A83E2"/>
</svg>
