<svg height="512" viewBox="0 0 512 512" width="512" xmlns="http://www.w3.org/2000/svg"><g id="Scrolling"><path d="m141.21 483c74.28 0 134.71-60.43 134.71-134.7v-184.12a134.79 134.79 0 0 0 -134.92-134.68c-73.49-.29-134.5 60.14-134.5 134.68v184.1c0 74.27 60.43 134.72 134.71 134.72zm119.71-318.8v74a178.43 178.43 0 0 0 -90.64-43.46v-19.87a29.12 29.12 0 0 0 -21.58-28.09c0-.05 0-.09 0-.14v-101.93a119.87 119.87 0 0 1 112.22 119.47zm-119.71-3.39a14.09 14.09 0 0 1 14.07 14.08v63.62a14.08 14.08 0 1 1 -28.15 0v-63.64a14.1 14.1 0 0 1 14.08-14.08zm-7.5-116.08v101.91a.66.66 0 0 0 0 .14 29.12 29.12 0 0 0 -21.59 28.09v19.89a178.4 178.4 0 0 0 -90.62 43.46v-74a119.86 119.86 0 0 1 112.21-119.51zm-112.21 214.48a163.5 163.5 0 0 1 90.63-49.21v28.52a29.08 29.08 0 1 0 58.15 0v-28.52a163.49 163.49 0 0 1 90.64 49.24v89.07a119.71 119.71 0 0 1 -239.42 0z"/><path d="m328.42 341.82a28 28 0 0 0 0 39.63l64.58 64.63a28.07 28.07 0 0 0 39.63 0l64.62-64.63a28 28 0 0 0 -39.63-39.63l-44.81 44.81-44.8-44.81a28 28 0 0 0 -39.59 0zm84.43 62.91a7.54 7.54 0 0 0 5.31-2.19l50.11-50.11a13 13 0 1 1 18.42 18.42l-64.63 64.62a13 13 0 0 1 -18.42 0l-64.64-64.62a13 13 0 0 1 0-18.42 13 13 0 0 1 18.42 0l50.11 50.11a7.52 7.52 0 0 0 5.32 2.19z"/><path d="m497.29 130.9-64.62-64.62a27.86 27.86 0 0 0 -19.67-8.21h-.1a28.22 28.22 0 0 0 -19.9 8.21l-64.58 64.62a28 28 0 0 0 39.63 39.64l44.8-44.81 44.81 44.81a28 28 0 0 0 39.63-39.64zm-10.6 29a13 13 0 0 1 -18.42 0l-50.11-50.11a7.5 7.5 0 0 0 -10.61 0l-50.11 50.11a13 13 0 0 1 -18.44-18.39l64.62-64.62a13.12 13.12 0 0 1 9.21-3.82 13 13 0 0 1 9.16 3.82l64.63 64.62a13 13 0 0 1 0 18.42z"/><path d="m412.5 164a7.5 7.5 0 0 0 -7.5 7.5v66.42a38.21 38.21 0 0 0 0 74.78v17.8a7.5 7.5 0 0 0 15 0v-17.67a38.2 38.2 0 0 0 0-75v-66.33a7.5 7.5 0 0 0 -7.5-7.5zm23.56 111.31a23.21 23.21 0 1 1 -23.21-23.21 23.23 23.23 0 0 1 23.21 23.21z"/></g></svg>