<svg width="24" height="24" viewBox="0 0 24 24" fill="none" xmlns="http://www.w3.org/2000/svg">
<path d="M20.25 11.2499H5.28787L11.0171 5.79294C11.3171 5.50719 11.3287 5.03244 11.043 4.73244C10.7576 4.43281 10.2829 4.42081 9.9825 4.70656L3.4395 10.9391C3.15637 11.2226 3 11.5991 3 11.9999C3 12.4004 3.15637 12.7773 3.45262 13.0732L9.98287 19.2929C10.128 19.4313 10.314 19.4999 10.5 19.4999C10.698 19.4999 10.896 19.4219 11.0434 19.2671C11.3291 18.9671 11.3175 18.4927 11.0175 18.2069L5.26425 12.7499H20.25C20.664 12.7499 21 12.4139 21 11.9999C21 11.5859 20.664 11.2499 20.25 11.2499Z" fill="#3A83E2"/>
</svg>
