<svg width="32" height="32" viewBox="0 0 32 32" fill="none" xmlns="http://www.w3.org/2000/svg">
<g clip-path="url(#clip0)">
<path d="M6.69238 32C6.42717 32 6.17281 31.8946 5.98528 31.7071C5.79774 31.5196 5.69238 31.2652 5.69238 31L5.69238 1C5.69238 0.734783 5.79774 0.480429 5.98528 0.292892C6.17281 0.105356 6.42717 0 6.69238 0C6.9576 0 7.21195 0.105356 7.39949 0.292892C7.58703 0.480429 7.69238 0.734783 7.69238 1L7.69238 31C7.69238 31.2652 7.58703 31.5196 7.39949 31.7071C7.21195 31.8946 6.9576 32 6.69238 32ZM14.9998 1L14.9998 31C14.9998 31.2652 15.1052 31.5196 15.2927 31.7071C15.4802 31.8946 15.7346 32 15.9998 32C16.265 32 16.5194 31.8946 16.7069 31.7071C16.8945 31.5196 16.9998 31.2652 16.9998 31V1C16.9998 0.734783 16.8945 0.480429 16.7069 0.292892C16.5194 0.105356 16.265 0 15.9998 0C15.7346 0 15.4802 0.105356 15.2927 0.292892C15.1052 0.480429 14.9998 0.734783 14.9998 1ZM24.3073 16V31C24.3073 31.2652 24.4126 31.5196 24.6002 31.7071C24.7877 31.8946 25.042 32 25.3073 32C25.5725 32 25.8268 31.8946 26.0144 31.7071C26.2019 31.5196 26.3073 31.2652 26.3073 31V16C26.3073 15.7348 26.2019 15.4804 26.0144 15.2929C25.8268 15.1054 25.5725 15 25.3073 15C25.042 15 24.7877 15.1054 24.6002 15.2929C24.4126 15.4804 24.3073 15.7348 24.3073 16Z" fill="#3A83E2"/>
</g>
<defs>
<clipPath id="clip0">
<rect width="32" height="32" fill="white" transform="translate(0 32) rotate(-90)"/>
</clipPath>
</defs>
</svg>
