<svg width="32" height="32" viewBox="0 0 32 32" fill="none" xmlns="http://www.w3.org/2000/svg">
<path d="M16.5889 5.80741C15.3418 4.56048 13.7008 3.78456 11.9457 3.61185C10.1906 3.43914 8.42989 3.88032 6.96359 4.86023C5.49729 5.84014 4.41611 7.29814 3.90428 8.98582C3.39244 10.6735 3.48161 12.4865 4.15659 14.1158C4.83157 15.7451 6.05061 17.0899 7.60599 17.9212C9.16137 18.7525 10.9569 19.0188 12.6866 18.6747C14.4163 18.3306 15.9731 17.3974 17.0919 16.0341C18.2107 14.6708 18.8222 12.9617 18.8222 11.1982C18.8248 10.1966 18.6288 9.20443 18.2454 8.27912C17.8621 7.3538 17.2991 6.51369 16.5889 5.80741ZM15.9704 15.9704C14.8664 17.0744 13.4137 17.7615 11.8598 17.9145C10.306 18.0675 8.74716 17.677 7.44896 16.8096C6.15075 15.9421 5.19348 14.6514 4.74026 13.1572C4.28703 11.6631 4.36589 10.0581 4.9634 8.61557C5.56091 7.17308 6.6401 5.98238 8.01708 5.24637C9.39407 4.51035 10.9837 4.27455 12.515 4.57915C14.0464 4.88375 15.4247 5.7099 16.4152 6.91683C17.4058 8.12376 17.9472 9.6368 17.9472 11.1982C17.9495 12.0848 17.7761 12.9631 17.4367 13.7822C17.0974 14.6014 16.5991 15.3451 15.9704 15.9704Z" fill="#19529D"/>
<path d="M12.6607 5.83443C12.6051 5.81867 12.5469 5.8141 12.4895 5.82098C12.432 5.82786 12.3765 5.84605 12.3262 5.87452C12.2759 5.90298 12.2317 5.94114 12.1961 5.98679C12.1606 6.03245 12.1345 6.08469 12.1194 6.14049C12.1042 6.19629 12.1002 6.25456 12.1077 6.31191C12.1151 6.36925 12.1339 6.42455 12.1629 6.4746C12.1919 6.52465 12.2305 6.56846 12.2765 6.60349C12.3225 6.63852 12.375 6.66408 12.431 6.67868C13.3522 6.93184 14.1743 7.45995 14.7876 8.19252C15.4009 8.9251 15.7761 9.82729 15.8633 10.7787C15.8729 10.8875 15.9229 10.9888 16.0034 11.0626C16.084 11.1364 16.1893 11.1774 16.2985 11.1774C16.3115 11.1774 16.3245 11.1769 16.3375 11.1759C16.3948 11.1708 16.4505 11.1545 16.5015 11.1279C16.5524 11.1013 16.5976 11.0648 16.6345 11.0207C16.6714 10.9766 16.6993 10.9257 16.7165 10.8708C16.7337 10.8159 16.7399 10.7582 16.7348 10.7009C16.6312 9.5717 16.1858 8.50089 15.4578 7.63138C14.7299 6.76187 13.7542 6.13501 12.6607 5.83443Z" fill="#19529D"/>
<path d="M10.6627 5.66508C10.1365 5.71528 9.62021 5.84072 9.12966 6.03758C9.07471 6.05773 9.02436 6.0887 8.98159 6.12866C8.93882 6.16862 8.9045 6.21676 8.88067 6.27022C8.85684 6.32368 8.84398 6.38138 8.84285 6.4399C8.84173 6.49842 8.85235 6.55657 8.8741 6.61091C8.89585 6.66525 8.92828 6.71468 8.96948 6.75626C9.01067 6.79784 9.05979 6.83073 9.11392 6.85298C9.16806 6.87524 9.22611 6.8864 9.28464 6.88582C9.34317 6.88524 9.40098 6.87291 9.45466 6.84958C9.8676 6.68387 10.3022 6.57838 10.7452 6.53633C10.8607 6.52526 10.9671 6.46875 11.041 6.37922C11.1148 6.2897 11.1501 6.17449 11.139 6.05896C11.128 5.94342 11.0714 5.83702 10.9819 5.76315C10.8924 5.68929 10.7772 5.65401 10.6617 5.66508H10.6627Z" fill="#19529D"/>
<path d="M30.3276 26.6L23.6026 19.875C23.376 19.6475 23.0929 19.4843 22.7825 19.4021C22.4721 19.3199 22.1454 19.3217 21.8358 19.4072L19.4203 16.9915C20.8703 14.9327 21.4953 12.4049 21.1719 9.90759C20.8484 7.41029 19.6 5.12515 17.6734 3.50368C15.7467 1.88221 13.282 1.04236 10.7661 1.15008C8.25028 1.25781 5.86634 2.30527 4.08535 4.0855C2.30408 5.86626 1.25571 8.25049 1.14748 10.7669C1.03925 13.2833 1.87904 15.7488 3.50083 17.6759C5.12263 19.603 7.40841 20.8516 9.90633 21.1747C12.4042 21.4979 14.9325 20.8722 16.9913 19.4212L19.4071 21.8367C19.3215 22.1462 19.3198 22.4729 19.4019 22.7833C19.4841 23.0937 19.6473 23.3767 19.8748 23.6032L26.5998 30.3282C26.9416 30.6692 27.4046 30.8607 27.8873 30.8607C28.3701 30.8607 28.8331 30.6692 29.1748 30.3282L30.3288 29.1742C30.6694 28.8324 30.8605 28.3694 30.8602 27.8869C30.86 27.4043 30.6685 26.9416 30.3276 26.6ZM4.70385 17.6925C2.98147 15.9701 2.01384 13.6341 2.01384 11.1982C2.01384 8.76243 2.98147 6.42638 4.70385 4.704C6.42623 2.98161 8.76228 2.01399 11.1981 2.01399C13.6339 2.01399 15.97 2.98161 17.6923 4.704C19.4147 6.42638 20.3824 8.76243 20.3824 11.1982C20.3824 13.6341 19.4147 15.9701 17.6923 17.6925C15.97 19.4149 13.6339 20.3825 11.1981 20.3825C8.76228 20.3825 6.42623 19.4149 4.70385 17.6925ZM17.6886 18.881C17.9021 18.7 18.1108 18.5115 18.3111 18.3112C18.5113 18.111 18.6998 17.9022 18.8808 17.6887L21.0498 19.8567C21.0433 19.8632 21.0363 19.8687 21.0298 19.875L19.8748 21.0287C19.8686 21.0352 19.8631 21.0425 19.8566 21.049L17.6886 18.881ZM29.7088 28.556L28.5551 29.7097C28.3776 29.8867 28.1371 29.986 27.8865 29.986C27.6358 29.986 27.3954 29.8867 27.2178 29.7097L20.4928 22.9847C20.405 22.897 20.3354 22.7927 20.2879 22.678C20.2403 22.5633 20.2159 22.4404 20.2159 22.3162C20.2159 22.1921 20.2403 22.0691 20.2879 21.9544C20.3354 21.8397 20.405 21.7355 20.4928 21.6477L21.6468 20.494C21.7346 20.4062 21.8388 20.3365 21.9535 20.289C22.0681 20.2414 22.1911 20.2169 22.3152 20.2169C22.4394 20.2169 22.5623 20.2414 22.677 20.289C22.7917 20.3365 22.8959 20.4062 22.9836 20.494L29.7086 27.219C29.8854 27.3964 29.9846 27.6366 29.9847 27.8871C29.9847 28.1375 29.8856 28.3778 29.7088 28.5552V28.556Z" fill="#19529D"/>
</svg>
