<svg width="36" height="24" viewBox="0 0 36 24" fill="none" xmlns="http://www.w3.org/2000/svg">
<path d="M35.3791 23.7931H0.620716C0.277944 23.7931 0 23.5151 0 23.1724V0.827625C0 0.484853 0.277944 0.206909 0.620716 0.206909H35.3792C35.722 0.206909 35.9999 0.484853 35.9999 0.827625V23.1724C35.9999 23.5151 35.7219 23.7931 35.3791 23.7931Z" fill="#41479B"/>
<path d="M35.9999 0.827625C35.9999 0.484853 35.7219 0.206909 35.3791 0.206909H32.6022L21.1033 7.74065V0.206909H14.8964V7.74065L3.39763 0.206909H0.620716C0.277944 0.206909 0 0.484853 0 0.827625V2.43292L9.86544 8.89651H0V15.1034H9.86544L0 21.5671V23.1724C0 23.5151 0.277944 23.7931 0.620716 23.7931H3.3977L14.8966 16.2593V23.7931H21.1034V16.2593L32.6023 23.7931H35.3793C35.7221 23.7931 36 23.5151 36 23.1724V21.5671L26.1346 15.1035H35.9999V8.89659H26.1344L35.9999 2.43292V0.827625Z" fill="#F5F5F5"/>
<path d="M35.9999 10.1379H19.862V0.206909H16.1378V10.1379H0V13.862H16.1378V23.7931H19.862V13.862H35.9999V10.1379Z" fill="#FF4B55"/>
<path d="M12.5813 15.1034L0.0166016 23.2594C0.0605467 23.5591 0.307694 23.7931 0.619669 23.7931H1.4746L14.8613 15.1035H12.5813V15.1034Z" fill="#FF4B55"/>
<path d="M24.3553 15.1034H22.0752L35.4425 23.7802C35.754 23.747 35.9999 23.4926 35.9999 23.1723V22.662L24.3553 15.1034Z" fill="#FF4B55"/>
<path d="M0 1.51283L11.375 8.89659H13.6551L0.361616 0.267456C0.149273 0.366104 0 0.578095 0 0.827633V1.51283Z" fill="#FF4B55"/>
<path d="M23.3835 8.89658L35.9783 0.720882C35.926 0.431055 35.6841 0.20697 35.3792 0.20697H34.4899L21.1034 8.89658H23.3835Z" fill="#FF4B55"/>
</svg>
