<svg width="36" height="36" viewBox="0 0 36 36" fill="none" xmlns="http://www.w3.org/2000/svg">
<path d="M25.5226 14.5495L24.708 14.7001C25.2216 16.9555 24.7463 19.4551 20.2241 19.9151C20.1376 19.9241 20.056 19.9596 19.9904 20.0167C19.9249 20.0738 19.8786 20.1497 19.8578 20.2341C19.837 20.3186 19.8428 20.4073 19.8744 20.4883C19.9059 20.5693 19.9617 20.6386 20.0341 20.6867C20.9427 21.287 20.6558 22.1047 20.8158 25.2857C20.8332 25.5424 20.9376 25.7854 21.1118 25.9746C20.6172 25.7534 20.6161 25.4082 20.6236 25.3255C20.6266 25.3099 20.5973 22.9195 20.516 22.3755C20.3459 21.2362 19.3596 21.4091 19.3596 21.958V25.505C19.3568 25.8086 19.4314 26.108 19.5763 26.3748C19.3043 26.2145 19.1048 26.087 19.0242 25.4709C18.9761 25.1038 18.9903 25.0511 18.9903 21.8377C18.9903 21.7258 18.9459 21.6185 18.8667 21.5394C18.7876 21.4603 18.6803 21.4158 18.5684 21.4158H18.2651C18.2086 21.4159 18.1526 21.4273 18.1005 21.4494C18.0484 21.4715 18.0013 21.5039 17.962 21.5445C17.9227 21.5852 17.8919 21.6334 17.8715 21.6862C17.8512 21.7389 17.8417 21.7953 17.8435 21.8518C17.8999 23.5294 17.8618 25.5548 17.7025 25.9242C17.5978 26.119 17.4424 26.2818 17.2527 26.3954C17.2869 26.3153 17.316 26.2331 17.3398 26.1493C17.4651 25.6527 17.4277 22.7643 17.4133 21.8908C17.4119 21.8153 17.3902 21.7415 17.3506 21.6772C17.311 21.6128 17.2548 21.5603 17.188 21.5251C17.1211 21.4898 17.0461 21.4732 16.9706 21.4768C16.8951 21.4805 16.822 21.5043 16.7589 21.5459C16.7023 21.5833 16.2057 21.9364 16.2057 22.7997V25.4448C16.2057 25.6726 15.9632 25.8639 15.6925 25.981C15.8638 25.7816 15.9579 25.5274 15.9577 25.2645V23.2805C15.9576 23.2208 15.9449 23.1617 15.9203 23.1072C15.8958 23.0528 15.8599 23.0041 15.8151 22.9646C15.7704 22.925 15.7177 22.8954 15.6606 22.8777C15.6036 22.8599 15.5434 22.8545 15.4841 22.8618C15.1387 22.8997 14.7915 22.9187 14.4441 22.9188C12.6974 22.9188 12.5954 21.6813 12.1641 21.0125C12.5437 21.4819 12.9185 22.0703 13.5423 22.2441C14.3943 22.4813 15.3641 22.3816 15.9009 22.0017C15.9501 21.9668 15.9913 21.9218 16.0216 21.8697C16.052 21.8177 16.0708 21.7597 16.0768 21.6997C16.0992 21.4977 16.1644 21.3029 16.2681 21.1282C16.3718 20.9535 16.5116 20.803 16.6782 20.6867C16.7507 20.6386 16.8065 20.5692 16.8381 20.4881C16.8696 20.407 16.8754 20.3181 16.8545 20.2336C16.8336 20.1491 16.787 20.0731 16.7213 20.0161C16.6556 19.9591 16.5738 19.9237 16.4872 19.9149C10.0767 19.2795 11.3947 13.8261 12.6518 12.2403C12.6932 12.1882 12.7216 12.127 12.7347 12.0618C12.7479 11.9966 12.7455 11.9292 12.7277 11.8651C12.408 10.7164 12.6331 9.84235 12.7774 9.45502C13.146 9.49169 13.9941 9.68236 15.2961 10.5818C15.3554 10.6228 15.4242 10.6479 15.4959 10.6547C15.5677 10.6615 15.64 10.6498 15.7059 10.6208C16.7177 10.1751 19.4659 10.1875 20.7025 10.5217C20.7591 10.537 20.8183 10.5403 20.8763 10.5315C20.9343 10.5226 20.9898 10.5018 21.0393 10.4703C22.1169 9.78371 23.1197 9.39652 23.5182 9.40585C23.6419 9.65875 23.8531 10.3247 23.612 11.663C23.5958 11.7531 23.6093 11.846 23.6506 11.9278C24.029 12.6588 24.3404 13.4226 24.5808 14.2099L25.3678 13.9412C25.1353 13.1598 24.8337 12.4007 24.4664 11.673C24.7628 9.86803 24.3266 9.04959 24.1211 8.77785C24.0745 8.71625 24.0119 8.66861 23.9401 8.64011C23.0976 8.30633 21.4318 9.23673 20.7404 9.66197C19.3559 9.3455 16.8377 9.3444 15.5908 9.76236C13.6246 8.45678 12.5498 8.59588 12.4305 8.61677C12.3685 8.6276 12.3097 8.65216 12.2585 8.68865C12.2073 8.72513 12.1648 8.77262 12.1343 8.82763C12.1048 8.88092 11.4401 10.1089 11.8624 11.8882C10.335 14.0641 9.55026 19.5745 15.577 20.6416C15.4307 20.8706 15.3273 21.1242 15.2718 21.3902C13.7824 22.0311 13.0777 20.8095 12.9913 20.6985C12.5412 20.1205 11.9249 19.3287 10.8407 19.5609C10.303 19.6693 10.0228 20.249 10.6745 20.7335C11.0704 21.0215 11.4203 21.2474 11.6852 21.9302C12.3725 23.7208 13.9617 23.7626 14.444 23.7626C14.6956 23.7626 14.9264 23.7527 15.1139 23.7408V25.2645C15.1139 25.6523 14.2041 25.7898 14.2041 26.4068C14.2041 27.0714 15.3288 27.0785 16.0897 26.7298C16.0315 27.2464 16.4813 27.3711 16.5536 27.3883C17.0932 27.5167 18.0002 27.1045 18.4158 26.3781C18.7856 27.1041 19.938 27.5776 20.3894 27.3894C20.725 27.2494 20.768 26.9169 20.7427 26.7335C21.2037 26.9466 22.0245 26.9921 22.3545 26.7537C22.3696 26.7427 22.964 26.319 22.1266 25.7322C21.9435 25.604 21.6668 25.4102 21.6584 25.2433C21.5326 22.7408 21.7161 21.5007 21.1654 20.6356C25.6933 19.8253 26.0403 16.9076 25.5226 14.5495Z" fill="#3A83E2"/>
<path d="M29.0794 7.49361L29.6667 6.8872C29.4722 6.68376 29.2703 6.48777 29.0608 6.29922L28.4741 6.90626C28.684 7.09371 28.8857 7.28949 29.0794 7.49361Z" fill="#3A83E2"/>
<path d="M30.08 7.34503L29.4191 7.86966C30.9903 9.6878 31.8547 12.0107 31.8543 14.4136V21.5863C31.8543 27.1645 27.2654 31.7027 21.6248 31.7027H14.3752C12.5083 31.7055 10.6761 31.1986 9.07618 30.2366C7.47625 29.2746 6.16932 27.8941 5.29633 26.244L4.56738 26.6697C5.51502 28.4471 6.92848 29.933 8.65625 30.9683C10.384 32.0035 12.361 32.5491 14.3752 32.5465H21.6248C27.7306 32.5465 32.6981 27.6297 32.6981 21.5863V14.4137C32.6986 11.8202 31.7698 9.31241 30.08 7.34503Z" fill="#3A83E2"/>
<path d="M4.14551 21.5863V14.4137C4.14551 8.83546 8.7345 4.29728 14.3751 4.29728H21.6248C23.9776 4.29359 26.2601 5.09936 28.0891 6.57935L28.5907 5.90077C26.6164 4.31338 24.1581 3.44975 21.6248 3.45353H14.3751C8.26923 3.45353 3.30176 8.37026 3.30176 14.4137V21.5863C3.30024 23.1501 3.63826 24.6956 4.29247 26.116L5.07293 25.7931C4.46072 24.4753 4.14418 23.0394 4.14551 21.5863Z" fill="#3A83E2"/>
</svg>
