<svg width="32" height="32" viewBox="0 0 32 32" fill="none" xmlns="http://www.w3.org/2000/svg">
<g clip-path="url(#clip0)">
<path d="M27.0182 17.9287H22.8925V2.93H23.4869C23.7771 2.93 24.0131 3.16606 24.0131 3.45625V16.2109C24.0131 16.4698 24.223 16.6796 24.4819 16.6796C24.7407 16.6796 24.9506 16.4698 24.9506 16.2109V3.45625C24.9506 2.64913 24.294 1.9925 23.4869 1.9925H22.8925V1.46375C22.8925 0.656626 22.2359 9.91949e-07 21.4287 9.91949e-07H9.82387C9.565 9.91949e-07 9.35512 0.209876 9.35512 0.468751C9.35512 0.727626 9.565 0.937501 9.82387 0.937501H21.4287C21.7189 0.937501 21.955 1.17356 21.955 1.46375V17.9287H19.0978C17.402 17.9287 16.0223 19.3083 16.0223 21.0042V25.4269H3.37C3.07981 25.4269 2.84375 25.1908 2.84375 24.9006V6.1855H6.637C7.44406 6.1855 8.10056 5.52894 8.10056 4.72194V0.468751C8.10056 0.279251 7.98644 0.108376 7.81138 0.035751C7.63637 -0.0368115 7.43475 0.003126 7.30062 0.137001L2.04394 5.385C1.98869 5.46825 1.92731 5.47269 1.90625 5.71688V24.9006C1.90625 25.7078 2.56288 26.3644 3.37 26.3644H3.965V26.8931C3.965 27.7003 4.62137 28.3569 5.42812 28.3569H16.0223V28.9246C16.0223 30.6204 17.4019 32 19.0978 32H27.0182C28.714 32 30.0936 30.6204 30.0936 28.9246V21.0042C30.0936 19.3084 28.714 17.9287 27.0182 17.9287ZM7.16313 1.59906V4.72188C7.16313 5.012 6.92712 5.24794 6.63706 5.24794H3.50806L7.16313 1.59906ZM5.42812 27.4194C5.13831 27.4194 4.9025 27.1833 4.9025 26.8931V26.3644H16.0223V27.4194H5.42812ZM29.1561 28.9246C29.1561 30.1034 28.1971 31.0625 27.0182 31.0625H19.0978C17.9189 31.0625 16.9598 30.1034 16.9598 28.9246C16.9598 28.9246 16.9598 25.8936 16.9598 25.8926V21.0042C16.9598 19.8253 17.9189 18.8662 19.0978 18.8662H27.0182C28.1971 18.8662 29.1561 19.8253 29.1561 21.0042V28.9246Z" fill="#19529D"/>
<path d="M24.354 20.7747C23.7583 19.9863 22.4163 19.9409 21.7622 20.7747L19.4137 23.7014C18.5737 24.6528 19.3752 26.3185 20.6454 26.2682H21.0827V28.7114C21.0827 29.2981 21.56 29.7754 22.1468 29.7754H23.9695C24.5562 29.7754 25.0335 29.2981 25.0335 28.7114V26.2682H25.4708C26.7274 26.3391 27.5378 24.6645 26.7027 23.7014L24.354 20.7747ZM26.044 24.9672C26.0179 25.0351 25.8338 25.3255 25.477 25.3308H24.5649C24.306 25.3308 24.0961 25.5406 24.0961 25.7995V28.7115C24.0961 28.7813 24.0394 28.838 23.9696 28.838H22.1469C22.077 28.838 22.0203 28.7813 22.0203 28.7115V25.7995C22.0203 25.5406 21.8104 25.3308 21.5515 25.3308H20.6394C20.041 25.2739 19.8606 24.7479 20.1414 24.2926L22.4935 21.3615C22.724 21.0759 23.2863 20.9567 23.6229 21.3615L25.975 24.2926C26.1081 24.4449 26.1534 24.736 26.044 24.9672Z" fill="#19529D"/>
<path d="M15.3747 5.75448C16.198 5.75448 16.8677 5.08473 16.8677 4.25936C16.8677 3.43611 16.198 2.76636 15.3747 2.76636H10.973C10.1497 2.76636 9.47998 3.43611 9.47998 4.26148C9.47998 5.08473 10.1497 5.75448 10.973 5.75448H15.3747ZM10.4174 4.2593C10.4174 3.95298 10.6666 3.70379 10.9729 3.70379H15.3747C15.6811 3.70379 15.9302 3.95298 15.9302 4.26142C15.9302 4.56773 15.6811 4.81692 15.3747 4.81692H10.973C10.6666 4.81698 10.4174 4.56773 10.4174 4.2593Z" fill="#19529D"/>
<path d="M5.4458 9.25488C5.4458 9.51376 5.65568 9.72363 5.91455 9.72363H18.9042C19.1631 9.72363 19.3729 9.51376 19.3729 9.25488C19.3729 8.99601 19.1631 8.78613 18.9042 8.78613H5.91455C5.65568 8.78613 5.4458 8.99601 5.4458 9.25488Z" fill="#19529D"/>
<path d="M18.9042 11.5654H5.91455C5.65568 11.5654 5.4458 11.7753 5.4458 12.0342C5.4458 12.2931 5.65568 12.5029 5.91455 12.5029H18.9042C19.1631 12.5029 19.3729 12.2931 19.3729 12.0342C19.3729 11.7753 19.1631 11.5654 18.9042 11.5654Z" fill="#19529D"/>
<path d="M18.9042 14.345H16.4785C16.2196 14.345 16.0098 14.5548 16.0098 14.8137C16.0098 15.0726 16.2196 15.2825 16.4785 15.2825H18.9042C19.1631 15.2825 19.373 15.0726 19.373 14.8137C19.373 14.5548 19.1631 14.345 18.9042 14.345Z" fill="#19529D"/>
<path d="M14.7469 14.8137C14.7469 14.5548 14.5371 14.345 14.2782 14.345H5.91455C5.65568 14.345 5.4458 14.5548 5.4458 14.8137C5.4458 15.0726 5.65568 15.2825 5.91455 15.2825H14.2782C14.5371 15.2825 14.7469 15.0726 14.7469 14.8137Z" fill="#19529D"/>
<path d="M11.5786 17.1245H5.91455C5.65568 17.1245 5.4458 17.3344 5.4458 17.5933C5.4458 17.8521 5.65568 18.062 5.91455 18.062H11.5786C11.8375 18.062 12.0474 17.8521 12.0474 17.5933C12.0474 17.3344 11.8375 17.1245 11.5786 17.1245Z" fill="#19529D"/>
<path d="M11.5786 19.9041H5.91455C5.65568 19.9041 5.4458 20.1139 5.4458 20.3728C5.4458 20.6317 5.65568 20.8416 5.91455 20.8416H11.5786C11.8375 20.8416 12.0474 20.6317 12.0474 20.3728C12.0474 20.1139 11.8375 19.9041 11.5786 19.9041Z" fill="#19529D"/>
</g>
<defs>
<clipPath id="clip0">
<rect width="32" height="32" fill="white"/>
</clipPath>
</defs>
</svg>
