<svg width="32" height="32" viewBox="0 0 32 32" fill="none" xmlns="http://www.w3.org/2000/svg">
<g clip-path="url(#clip0)">
<path d="M6.17281 22.1383H1.84099C1.60212 22.1383 1.40855 22.3318 1.40855 22.5707V31.5676C1.40855 31.8064 1.60212 32 1.84099 32H6.17281C6.41168 32 6.60524 31.8064 6.60524 31.5676V22.5707C6.60524 22.3318 6.41168 22.1383 6.17281 22.1383ZM5.74037 31.1351H2.27343V23.0031H5.74037V31.1351ZM14.1864 13.7209H9.85462C9.61574 13.7209 9.42218 13.9144 9.42218 14.1533V31.3632C9.42218 31.6021 9.61574 31.7956 9.85462 31.7956H14.1864C14.4253 31.7956 14.6189 31.6021 14.6189 31.3632V14.1533C14.6189 13.9144 14.4254 13.7209 14.1864 13.7209ZM13.7541 30.9307H10.2871V14.5857H13.7541V30.9307ZM22.2001 16.5839H17.8683C17.6294 16.5839 17.4359 16.7774 17.4359 17.0163V31.1588C17.4359 31.3976 17.6294 31.5912 17.8683 31.5912H22.2001C22.439 31.5912 22.6326 31.3976 22.6326 31.1588V17.0163C22.6326 16.7774 22.439 16.5839 22.2001 16.5839ZM21.7677 30.7264H18.3007V17.4487H21.7677V30.7264ZM30.2139 8.60881H25.882C25.6431 8.60881 25.4496 8.80237 25.4496 9.04125V30.9543C25.4496 31.1931 25.6431 31.3867 25.882 31.3867H30.2139C30.4528 31.3867 30.6464 31.1931 30.6464 30.9543V9.04125C30.6464 8.80237 30.4528 8.60881 30.2139 8.60881ZM29.7815 30.5218H26.3144V9.47369H29.7815V30.5218ZM19.9801 12.5976C21.4128 12.5976 22.5784 11.432 22.5784 9.99944C22.5784 9.42531 22.3889 8.89588 22.0724 8.46531L26.3724 4.62506C26.8173 4.98175 27.3807 5.19644 27.9939 5.19644C29.4266 5.19644 30.5922 4.03075 30.5922 2.59806C30.5921 1.16556 29.4266 0 27.9939 0C26.5611 0 25.3956 1.16556 25.3956 2.59812C25.3956 3.106 25.5442 3.57875 25.7972 3.97944L21.4517 7.86025C21.0329 7.57125 20.5263 7.401 19.9801 7.401C19.0333 7.401 18.2056 7.91175 17.7514 8.67056L14.5231 7.41719C14.5489 7.2705 14.5649 7.1205 14.5649 6.96663C14.5649 5.53394 13.3992 4.36837 11.9665 4.36837C10.5339 4.36837 9.36837 5.53394 9.36837 6.96663C9.36837 7.51706 9.54156 8.02712 9.83474 8.44781L5.36643 12.8208C4.95912 12.5554 4.47412 12.3996 3.95274 12.3996C2.52005 12.3996 1.35449 13.5652 1.35449 14.9978C1.35449 16.4304 2.52005 17.596 3.95274 17.596C5.38543 17.596 6.55112 16.4304 6.55112 14.9978C6.55112 14.3986 6.34524 13.8477 6.00318 13.4078L10.4406 9.06506C10.8696 9.378 11.3961 9.56506 11.9666 9.56506C12.9396 9.56506 13.7884 9.02656 14.2335 8.23263L17.4351 9.47556C17.4002 9.64481 17.3819 9.82 17.3819 9.99944C17.3819 11.432 18.5474 12.5976 19.9801 12.5976ZM3.95262 16.7311C2.9968 16.7311 2.21924 15.9536 2.21924 14.9978C2.21924 14.0421 2.9968 13.2645 3.95262 13.2645C4.90856 13.2645 5.68612 14.0421 5.68612 14.9978C5.68618 15.9536 4.90862 16.7311 3.95262 16.7311ZM11.9664 8.70019C11.0107 8.70019 10.2332 7.92263 10.2332 6.96669C10.2332 6.01088 11.0107 5.23331 11.9664 5.23331C12.9224 5.23331 13.6999 6.01088 13.6999 6.96669C13.7 7.92256 12.9224 8.70019 11.9664 8.70019ZM27.9939 0.864875C28.9497 0.864875 29.7272 1.64244 29.7272 2.59812C29.7272 3.55406 28.9497 4.33162 27.9939 4.33162C27.0381 4.33162 26.2605 3.55406 26.2605 2.59812C26.2605 1.64244 27.0381 0.864875 27.9939 0.864875ZM19.9801 8.26594C20.9359 8.26594 21.7135 9.0435 21.7135 9.99944C21.7135 10.9551 20.9359 11.7327 19.9801 11.7327C19.0243 11.7327 18.2467 10.9551 18.2467 9.99944C18.2467 9.0435 19.0243 8.26594 19.9801 8.26594Z" fill="#19529D"/>
</g>
<defs>
<clipPath id="clip0">
<rect width="32" height="32" fill="white"/>
</clipPath>
</defs>
</svg>
