<svg width="32" height="32" viewBox="0 0 32 32" fill="none" xmlns="http://www.w3.org/2000/svg">
<g clip-path="url(#clip0)">
<path d="M26.1022 32H9.6788C9.41992 32 9.21004 31.7901 9.21004 31.5312C9.21004 31.2724 9.41992 31.0625 9.6788 31.0625H26.1022C28.8373 31.0625 31.0623 28.8374 31.0623 26.1024V5.89762C31.0623 3.16262 28.8372 0.937518 26.1022 0.937518H5.8981C3.16311 0.937518 0.938007 3.16262 0.938007 5.89762V26.1024C0.938007 28.8374 3.16311 31.0625 5.8981 31.0625H7.80377C8.06265 31.0625 8.27252 31.2724 8.27252 31.5312C8.27252 31.7901 8.06265 32 7.80377 32H5.8981C2.64617 32 0.000488281 29.3543 0.000488281 26.1024V5.89762C0.000488281 2.64568 2.64617 0 5.8981 0H26.1022C29.3542 0 31.9999 2.64568 31.9999 5.89762V26.1024C31.9999 29.3543 29.3542 32 26.1022 32Z" fill="#19529D"/>
<path d="M26.1021 29.4999H5.89782C4.02428 29.4999 2.5 27.9757 2.5 26.1021V5.89782C2.5 4.02428 4.02428 2.5 5.89782 2.5H26.1021C27.9757 2.5 29.4999 4.02428 29.4999 5.89782V26.1021C29.4999 27.9757 27.9757 29.4999 26.1021 29.4999ZM5.89782 3.43752C4.54123 3.43752 3.43752 4.54123 3.43752 5.89782V26.1021C3.43752 27.4587 4.54123 28.5624 5.89782 28.5624H26.1021C27.4587 28.5624 28.5624 27.4587 28.5624 26.1021V5.89782C28.5624 4.54123 27.4587 3.43752 26.1021 3.43752H5.89782Z" fill="#19529D"/>
<path d="M10.6179 25.9375C10.0416 25.9375 9.46539 25.7182 9.02669 25.2795L6.72096 22.9731C6.29602 22.5482 6.06201 21.9832 6.06201 21.3823C6.06201 20.7813 6.29602 20.2164 6.72102 19.7914L10.5122 15.9997L6.72102 12.2085C6.29602 11.7836 6.06201 11.2185 6.06201 10.6174C6.06201 10.0162 6.29602 9.45116 6.72102 9.02621L9.02669 6.72054C9.90402 5.84315 11.3316 5.84315 12.2091 6.72054L16.0002 10.5122L19.7913 6.72061C20.6686 5.84321 22.0962 5.84315 22.9737 6.72061L25.2794 9.02628C25.7043 9.45122 25.9384 10.0163 25.9384 10.6174C25.9384 11.2186 25.7043 11.7836 25.2794 12.2086L24.7024 12.7855C24.5194 12.9686 24.2226 12.9685 24.0395 12.7855C23.8565 12.6024 23.8565 12.3056 24.0396 12.1226L24.6165 11.5457C25.1283 11.0339 25.1283 10.201 24.6164 9.68923L22.3107 7.38356C21.7989 6.87167 20.966 6.8718 20.4543 7.38356L16.3317 11.5067C16.2438 11.5946 16.1246 11.644 16.0002 11.644C15.8758 11.644 15.7566 11.5946 15.6687 11.5067L11.5461 7.38349C11.0344 6.87173 10.2015 6.87173 9.68965 7.38349L7.38398 9.68916C6.87215 10.201 6.87215 11.0338 7.38398 11.5456L11.5066 15.6682C11.6896 15.8513 11.6896 16.148 11.5066 16.3311L7.38398 20.4543C6.87228 20.966 6.87228 21.7985 7.38398 22.3102L9.68971 24.6166C10.2015 25.1283 11.0343 25.1284 11.5462 24.6166L15.6687 20.4934C15.7566 20.4054 15.8758 20.3561 16.0002 20.3561C16.1246 20.3561 16.2438 20.4055 16.3317 20.4934L20.4543 24.6166C20.9661 25.1284 21.799 25.1283 22.3107 24.6166L24.6164 22.3103C25.1281 21.7986 25.1281 20.9661 24.6164 20.4544L20.4939 16.3312C20.3108 16.1481 20.3108 15.8513 20.4939 15.6683L22.7626 13.3995C22.9458 13.2164 23.2425 13.2164 23.4256 13.3995C23.6087 13.5826 23.6087 13.8794 23.4256 14.0624L21.4883 15.9998L25.2794 19.7915C25.7043 20.2165 25.9384 20.7814 25.9384 21.3824C25.9384 21.9833 25.7043 22.5483 25.2794 22.9732L22.9737 25.2795C22.0963 26.1569 20.6687 26.157 19.7913 25.2795L16.0002 21.4878L12.2091 25.2795C11.7704 25.7181 11.1941 25.9375 10.6179 25.9375V25.9375Z" fill="#19529D"/>
</g>
<defs>
<clipPath id="clip0">
<rect width="32" height="32" fill="white"/>
</clipPath>
</defs>
</svg>
