<svg width="32" height="32" viewBox="0 0 32 32" fill="none" xmlns="http://www.w3.org/2000/svg">
<g>
<path d="M28.3685 7.38688L25.9745 4.99306V1.42237C25.9745 0.638062 25.3365 0 24.5521 0H4.89877C4.12427 0 3.49414 0.630125 3.49414 1.40463V24.9691C3.49414 25.7436 4.12427 26.3737 4.89877 26.3737H5.69327V27.1564C5.69327 27.9309 6.32339 28.5611 7.09795 28.5611H10.145C10.4039 28.5611 10.6138 28.3512 10.6138 28.0923C10.6138 27.8334 10.4039 27.6236 10.145 27.6236H7.09795C6.84033 27.6236 6.63077 27.414 6.63077 27.1564V8.30994C6.63077 8.051 6.42089 7.84119 6.16202 7.84119C5.90314 7.84119 5.69327 8.051 5.69327 8.30994V25.4362H4.89877C4.6412 25.4362 4.43164 25.2266 4.43164 24.9691V1.40463C4.43164 1.14706 4.6412 0.9375 4.89877 0.9375H24.5521C24.8195 0.9375 25.0371 1.155 25.0371 1.42237V4.05562L23.306 2.32469C23.2181 2.23681 23.0989 2.18744 22.9746 2.18744H7.09795C6.32339 2.18744 5.69327 2.81756 5.69327 3.59206V6.12787C5.69327 6.38681 5.90314 6.59662 6.16202 6.59662C6.42089 6.59662 6.63077 6.38681 6.63077 6.12787V3.592C6.63077 3.33444 6.84033 3.12488 7.09795 3.12488H22.5058V7.7175C22.5058 7.97638 22.7156 8.18619 22.9745 8.18625L27.5683 8.187V27.1564C27.5683 27.4139 27.3587 27.6235 27.1011 27.6235H24.0905C23.8316 27.6235 23.6218 27.8333 23.6218 28.0923C23.6218 28.3512 23.8316 28.561 24.0905 28.561H27.1011C27.8756 28.561 28.5058 27.9309 28.5058 27.1564V7.71838C28.5058 7.59406 28.4564 7.47487 28.3685 7.38688ZM23.4433 7.24881V3.78775L26.9051 7.24944L23.4433 7.24881Z" fill="#19529D"/>
<path d="M22.7183 10.9661H11.5044C11.2455 10.9661 11.0356 11.1759 11.0356 11.4348C11.0356 11.6938 11.2455 11.9036 11.5044 11.9036H22.7183C22.9771 11.9036 23.187 11.6938 23.187 11.4348C23.187 11.1759 22.9771 10.9661 22.7183 10.9661Z" fill="#19529D"/>
<path d="M22.7183 13.7305H11.5044C11.2455 13.7305 11.0356 13.9403 11.0356 14.1992C11.0356 14.4582 11.2455 14.668 11.5044 14.668H22.7183C22.9771 14.668 23.187 14.4582 23.187 14.1992C23.187 13.9403 22.9771 13.7305 22.7183 13.7305Z" fill="#19529D"/>
<path d="M22.7184 16.55H20.5029C20.2441 16.55 20.0342 16.7599 20.0342 17.0188C20.0342 17.2777 20.2441 17.4875 20.5029 17.4875H22.7184C22.9772 17.4875 23.1871 17.2777 23.1871 17.0188C23.1871 16.7599 22.9772 16.55 22.7184 16.55Z" fill="#19529D"/>
<path d="M18.2968 17.4875C18.5556 17.4875 18.7655 17.2777 18.7655 17.0188C18.7655 16.7599 18.5556 16.55 18.2968 16.55H11.5044C11.2455 16.55 11.0356 16.7599 11.0356 17.0188C11.0356 17.2777 11.2455 17.4875 11.5044 17.4875H18.2968Z" fill="#19529D"/>
<path d="M18.8297 26.5633L17.5801 27.8129V23.2812C17.5801 23.0223 17.3702 22.8125 17.1113 22.8125C16.8524 22.8125 16.6426 23.0223 16.6426 23.2812V27.8129L15.3929 26.5633C15.2099 26.3803 14.9131 26.3803 14.7301 26.5634C14.547 26.7464 14.547 27.0432 14.7301 27.2262L16.7799 29.276C16.8714 29.3675 16.9914 29.4132 17.1113 29.4132C17.2313 29.4132 17.3513 29.3675 17.4428 29.276L19.4926 27.2262C19.6756 27.0432 19.6756 26.7464 19.4926 26.5634C19.3096 26.3803 19.0127 26.3803 18.8297 26.5633Z" fill="#19529D"/>
<path d="M17.1111 20.2258C13.8648 20.2258 11.2236 22.8668 11.2236 26.113C11.2236 29.3591 13.8648 32.0001 17.1111 32.0001C20.3574 32.0001 22.9985 29.3591 22.9985 26.113C22.9985 22.8668 20.3574 20.2258 17.1111 20.2258ZM17.1111 31.0627C14.3817 31.0627 12.1611 28.8423 12.1611 26.1131C12.1611 23.3838 14.3817 21.1634 17.1111 21.1634C19.8404 21.1634 22.061 23.3838 22.061 26.1131C22.061 28.8423 19.8404 31.0627 17.1111 31.0627Z" fill="#19529D"/>
</g>
<defs>
<clipPath id="clip0">
<rect width="32" height="32" fill="white"/>
</clipPath>
</defs>
</svg>
